<?xml version="1.0" encoding="utf-8"?>
<!-- Generator: Adobe Illustrator 24.2.0, SVG Export Plug-In . SVG Version: 6.00 Build 0)  -->
<svg version="1.1" id="Layer_1" xmlns="http://www.w3.org/2000/svg" xmlns:xlink="http://www.w3.org/1999/xlink" x="0px" y="0px"
	 viewBox="0 0 120.22 184.27" style="enable-background:new 0 0 120.22 184.27;" xml:space="preserve">
<path d="M83.83,70.12c-3.87,17.02-10.94,48.63-12.4,62.4c-0.05,0.46,1.53,1,1.68,0.2c1.95-10.49,5.38-24.54,8.2-34.63
	c2.47-8.85,5.93-21.86,7.72-28.65c2.26-0.36,4.02-0.76,5.03-1.22c2.17-0.98,5.49-7.27-11.87-3.27s-29.46,4.17-29.46,4.17
	c1.44-11.19,2.56-19.22,4.29-24.25c1.48-4.32,5.16-7.97,7.79-8.69c4.46-1.22,9.47,3.09,7.79,10.22c-2.09,7.84-10.06,6.24-13.27,6.72
	c-0.55,0.08-0.09,2.16,0.47,2.19c6.71,0.36,13.04-1.26,15.22-5.07c2.37-4.14,3.49-13.58-3.21-16.83
	c-8.39-4.07-15.28,1.78-17.81,7.84c-3.13,7.5-4.16,19.93-4.92,26.68c-2.6,23.06-16.91,86.52-18.14,90.69
	c-0.14,0.48,1.84,0.79,1.93,0.3c2.63-13.38,11.41-42.39,14.45-55.38c2.98-12.76,5.37-15.01,8.04-16.05
	c2.67-1.04,5.26,1.48,5.47,5.22c0.23,4.17-2.37,17.36-4.3,25.08c-1.93,7.72-4.87,19.35-5.94,24.34c-0.11,0.51,1.79,0.95,2.08,0.21
	c0.88-2.23,4.39-18.07,5.79-22.77c1.27-4.28,5.19-14.69,6.08-19.29c0.89-4.6,1.68-9.19,1.2-13.03c-0.31-2.41-1.3-6.72-7.36-7.37
	c-6.66-0.71-8.38,5.41-8.38,5.41l2.23-13.36C52.21,71.94,71.15,71.47,83.83,70.12z"/>
</svg>
